<svg width="306" height="203" viewBox="0 0 306 203" fill="none" xmlns="http://www.w3.org/2000/svg">
    <path d="M306 0C306 5.89814 293.362 46.4261 249.859 72.4394C211.444 95.4035 122.809 85.3967 82 96C95.2037 82.8445 109.173 57.3281 157.631 42.416C190.158 32.3763 264.625 41.1902 306 0Z" fill="#E0E0E0"/>
    <path d="M0 203C0 187.593 11.2733 127.732 85.3488 112.325C137.645 101.453 188.475 109.19 224.695 101.52C260.915 93.8824 291 59 291 59C291 59 287.431 153.21 196.179 172.786C118.968 189.327 65.7708 139.004 0 203Z" fill="#E0E0E0"/>
</svg>
