<svg width="1920" height="305" viewBox="0 0 1920 305" fill="none" xmlns="http://www.w3.org/2000/svg">
    <path d="M1945.18 53.2998C1812.95 17.5823 1650.79 -5.64368 1464.7 1.49995C943.969 21.4891 734.515 108 416.455 108C206.67 108 49.6174 72.3271 -33.0002 48.039C-33.0002 263 -33.0002 -12.0136 -33.0002 299.579C148.581 312.506 397.36 279.062 654.258 267.481C1076.53 248.388 1596.07 224.189 1945.18 161C1945.18 -4.51419 1945.18 285.5 1945.18 53.2998Z" fill="url(#paint0_linear)"/>
    <path d="M-21.3636 317C-21.3636 317 1255 317 1944.7 317C1944.7 219.473 1933.06 318.5 1933.06 100.962C1808.73 65.6201 1657.51 39.8656 1467.61 33.5C1140.98 22.3031 529.901 191.023 -21.3639 87.2929C-21.3639 545 -21.3636 317 -21.3636 317Z" fill="white"/>
    <defs>
        <linearGradient id="paint0_linear" x1="1810.88" y1="996.5" x2="2885.32" y2="-1049.76" gradientUnits="userSpaceOnUse">
            <stop stop-color="#F2F4FB"/>
            <stop offset="1" stop-color="#B2B2B2"/>
        </linearGradient>
    </defs>
</svg>
