<svg width="1920" height="890" viewBox="0 0 1920 890" fill="none" xmlns="http://www.w3.org/2000/svg">
    <path d="M-161.732 912.527C-149.851 848.63 -25.6247 614.889 499.205 646.369C869.725 668.62 1215.73 766.153 1472.46 780.98C1729.17 795.944 1964.39 690.015 1964.39 690.015C1964.39 690.015 2038.87 1017.14 1919.54 1148.45C1805.13 1274.37 1503.79 1205.09 1187.09 1187.32C639.675 1156.5 -111.252 1112.39 -161.732 912.527Z"
          fill="#C9C9C9"/>
    <path d="M2024.81 614.031C2006.25 674.491 2173.78 1232.98 1703.32 1380.38C1287.91 1510.47 119.632 987.236 -278.298 984.059C-118.962 885.401 86.0916 662.135 565.907 642.111C888.072 628.362 1525.62 922.839 2024.81 614.031Z"
          fill="white"/>
</svg>
