<svg width="435" height="55" viewBox="0 0 435 55" fill="none" xmlns="http://www.w3.org/2000/svg">
    <path d="M319.373 24.6061L308.897 24.6003L308.881 53.2069L298.924 53.2013L298.94 24.5948L288.463 24.589L288.468 16.0441L319.378 16.0613L319.373 24.6061Z" fill="#E30613"/>
    <path d="M321.311 34.6381C321.315 28.3471 322.853 23.5183 325.926 20.1516C328.999 16.7353 333.31 15.0288 338.858 15.0318C341.83 15.0335 344.405 15.5055 346.584 16.4479C348.763 17.3902 350.571 18.7287 352.006 20.4632C353.442 22.1482 354.506 24.2045 355.198 26.6321C355.94 29.0598 356.31 31.7349 356.308 34.6574C356.304 40.9484 354.766 45.802 351.693 49.2182C348.67 52.585 344.384 54.2668 338.836 54.2637C335.864 54.2621 333.288 53.79 331.109 52.8477C328.93 51.9053 327.098 50.5916 325.613 48.9066C324.177 47.172 323.089 45.091 322.347 42.6633C321.655 40.2357 321.31 37.5606 321.311 34.6381ZM331.268 34.6436C331.267 36.2782 331.415 37.7891 331.711 39.1763C332.008 40.5634 332.453 41.7773 333.047 42.8179C333.64 43.8584 334.408 44.6762 335.349 45.2711C336.339 45.8166 337.503 46.0897 338.84 46.0904C341.367 46.0918 343.25 45.1764 344.489 43.3443C345.728 41.5122 346.349 38.6147 346.351 34.6519C346.353 31.234 345.785 28.4845 344.647 26.4034C343.509 24.2727 341.578 23.2066 338.853 23.2051C336.475 23.2038 334.617 24.0944 333.279 25.8769C331.941 27.6595 331.27 30.5817 331.268 34.6436Z" fill="#E30613"/>
    <path d="M384.772 38.6113L372.66 38.6046L372.652 53.2422L362.993 53.2369L363.014 16.0855L372.673 16.0908L372.665 30.0597L384.777 30.0664L384.784 16.0975L394.444 16.1029L394.423 53.2543L384.764 53.2489L384.772 38.6113Z" fill="#E30613"/>
    <path d="M424.681 38.6334L412.569 38.6267L412.561 53.2643L402.902 53.259L402.922 16.1076L412.582 16.1129L412.574 30.0819L424.685 30.0886L424.693 16.1196L434.352 16.125L434.332 53.2764L424.672 53.271L424.681 38.6334Z" fill="#E30613"/>
    <path d="M2.82793 44.8844L13.156 44.8901L13.1723 15.5405L14.2896 10.4885L10.7207 14.8704L4.1052 19.3992L0.0216375 13.8242L16.9703 0.161904L22.3944 0.16491L22.3696 44.8952L32.4747 44.9008L32.4702 53.0741L2.8234 53.0577L2.82793 44.8844Z" fill="#E30613"/>
    <path d="M78.5744 38.6106L70.4011 38.6061L70.3931 53.0951L61.4025 53.0901L61.4105 38.6011L38.8967 38.5886L38.8998 33.0902L62.4717 0.707239L70.4221 0.711645L70.4054 30.8786L78.5787 30.8831L78.5744 38.6106ZM61.4211 19.5053L62.0932 13.2642L61.796 13.264L59.2668 18.6124L51.5337 28.639L47.817 31.4605L52.5727 30.8687L61.4148 30.8736L61.4211 19.5053Z" fill="#E30613"/>
    <path d="M114.951 13.8136C114.949 16.3399 114.477 18.8907 113.535 21.466C112.642 24.0414 111.476 26.567 110.038 29.043C108.65 31.519 107.088 33.9206 105.353 36.2478C103.668 38.5254 102.007 40.6298 100.371 42.5607L96.4317 45.605L96.4315 45.9765L101.782 44.9392L116.048 44.9471L116.043 53.1204L84.762 53.1031L84.7647 48.1248C85.9543 46.8871 87.2925 45.4513 88.7795 43.8175C90.2665 42.1341 91.7535 40.3764 93.2406 38.5444C94.7772 36.6629 96.2643 34.7319 97.7019 32.7513C99.1396 30.7707 100.429 28.79 101.569 26.8092C102.709 24.7789 103.602 22.8227 104.247 20.9408C104.942 19.0588 105.289 17.2757 105.29 15.5915C105.291 13.5606 104.698 11.9008 103.51 10.6123C102.371 9.27418 100.539 8.60443 98.0125 8.60303C96.4274 8.60216 94.7925 8.948 93.108 9.64056C91.473 10.2836 90.0855 11.1249 88.9456 12.1645L85.0857 5.32655C87.0184 3.74249 89.1987 2.48055 91.6264 1.54073C94.1037 0.551396 97.0018 0.0576496 100.321 0.059489C102.451 0.0606695 104.407 0.358964 106.19 0.954376C107.973 1.54979 109.508 2.4175 110.795 3.55753C112.083 4.69755 113.097 6.13463 113.839 7.86878C114.582 9.55339 114.952 11.535 114.951 13.8136Z" fill="#E30613"/>
    <path d="M124.917 48.2214C124.918 46.4876 125.463 45.1257 126.554 44.1356C127.644 43.096 129.081 42.5766 130.864 42.5776C132.746 42.5787 134.232 43.0996 135.321 44.1405C136.411 45.1318 136.955 46.4943 136.954 48.228C136.953 49.9618 136.407 51.3484 135.317 52.3881C134.226 53.4277 132.74 53.947 130.858 53.946C129.074 53.945 127.638 53.4241 126.549 52.3832C125.46 51.3424 124.916 49.9551 124.917 48.2214Z" fill="#E30613"/>
    <path d="M147.806 53.138L164.844 13.0982L168.115 9.45922L163.656 10.1998L144.561 10.1892L144.566 1.12425L178.076 1.14282L178.075 3.96633L157.243 53.1433L147.806 53.138Z" fill="#E30613"/>
    <path d="M185.223 27.0785C185.228 17.964 186.793 11.2033 189.916 6.7964C193.039 2.33996 197.523 0.11336 203.368 0.116599C209.61 0.120058 214.19 2.32691 217.111 6.73717C220.031 11.0979 221.488 17.885 221.483 27.0986C221.478 36.2626 219.889 43.0728 216.716 47.5292C213.593 51.9856 209.109 54.2122 203.264 54.209C197.072 54.2056 192.516 51.8749 189.596 47.217C186.676 42.5095 185.219 35.7967 185.223 27.0785ZM194.883 27.0838C194.879 33.1271 195.521 37.8086 196.807 41.1281C198.142 44.3982 200.321 46.0341 203.343 46.0357C206.265 46.0374 208.396 44.5277 209.735 41.5068C211.124 38.4859 211.82 33.6814 211.824 27.0932C211.827 21.0995 211.186 16.4676 209.9 13.1975C208.613 9.92748 206.41 8.2916 203.289 8.28987C200.317 8.28822 198.162 9.82262 196.822 12.8931C195.533 15.9635 194.886 20.6938 194.883 27.0838Z" fill="#E30613"/>
    <path d="M265.492 38.7142L257.319 38.7097L257.311 53.1987L248.32 53.1937L248.328 38.7047L225.815 38.6922L225.818 33.1938L249.39 0.810831L257.34 0.815237L257.323 30.9822L265.497 30.9867L265.492 38.7142ZM248.339 19.6089L249.011 13.3678L248.714 13.3676L246.185 18.716L238.452 28.7426L234.735 31.5641L239.491 30.9723L248.333 30.9772L248.339 19.6089Z" fill="#E30613"/>
</svg>
