<svg width="272" height="55" viewBox="0 0 272 55" fill="none" xmlns="http://www.w3.org/2000/svg">
    <path d="M173.982 10.0856L153.921 10.0745L153.897 53.0215L143.717 53.0159L143.746 1.00391L173.987 1.02067L173.982 10.0856Z" fill="#E30613"/>
    <path d="M180.942 37.6558L178.341 37.6544L178.333 53.0351L168.673 53.0297L168.694 15.8783L178.353 15.8837L178.344 31.7101L180.648 30.6712L189.35 15.8897L199.678 15.8955L190.68 30.008L186.889 32.8294L191.048 35.7295L201.069 53.0477L189.998 53.0415L180.942 37.6558Z" fill="#E30613"/>
    <path d="M204.823 18.0531C206.805 17.1626 209.158 16.4704 211.883 15.9765C214.608 15.4332 217.456 15.1623 220.428 15.1639C223.004 15.1654 225.158 15.4885 226.892 16.1335C228.625 16.7288 229.987 17.5965 230.977 18.7363C232.017 19.8762 232.734 21.2388 233.13 22.8242C233.575 24.4095 233.796 26.1929 233.795 28.1743C233.794 30.3539 233.719 32.5582 233.569 34.7872C233.419 36.9666 233.319 39.1214 233.268 41.2514C233.267 43.3814 233.34 45.4619 233.487 47.4929C233.635 49.4744 234.005 51.3569 234.599 53.1405L226.723 53.1362L225.165 48.0084L224.794 48.0082C223.802 49.5432 222.414 50.8799 220.631 52.0182C218.896 53.1071 216.642 53.6507 213.868 53.6492C212.134 53.6482 210.574 53.3997 209.187 52.9035C207.801 52.3579 206.612 51.6142 205.622 50.6725C204.632 49.6812 203.865 48.5415 203.321 47.2533C202.776 45.9155 202.505 44.4293 202.506 42.7947C202.507 40.516 203.003 38.6092 203.995 37.0742C205.036 35.4896 206.498 34.2273 208.381 33.2872C210.313 32.2975 212.592 31.6301 215.218 31.2848C217.893 30.89 220.865 30.7678 224.134 30.9182C224.483 28.1444 224.286 26.1629 223.543 24.9736C222.801 23.7348 221.142 23.1147 218.566 23.1133C216.634 23.1122 214.578 23.3092 212.399 23.7043C210.268 24.0994 208.51 24.6186 207.122 25.2618L204.823 18.0531ZM217.067 45.7005C218.999 45.7016 220.535 45.2814 221.675 44.4399C222.815 43.5489 223.657 42.6082 224.203 41.6178L224.206 36.7882C222.67 36.6387 221.184 36.6131 219.747 36.7114C218.36 36.8097 217.122 37.0319 216.032 37.378C214.942 37.7242 214.075 38.2191 213.43 38.8627C212.786 39.5063 212.464 40.3234 212.463 41.3141C212.462 42.7011 212.858 43.7911 213.65 44.5841C214.492 45.3276 215.631 45.6997 217.067 45.7005Z" fill="#E30613"/>
    <path d="M262.114 24.4749L254.758 24.4708C254.459 27.9877 254.11 31.4797 253.712 34.9469C253.314 38.4142 252.668 41.5345 251.775 44.308C250.931 47.032 249.766 49.2604 248.279 50.9933C246.792 52.6767 244.859 53.5177 242.482 53.5164C239.609 53.5148 237.578 53.1422 236.389 52.3985L237.583 44.3745C238.375 44.6721 239.118 44.8211 239.812 44.8215C240.802 44.8221 241.669 44.4015 242.413 43.5598C243.156 42.7181 243.776 41.2076 244.273 39.0284C244.819 36.8491 245.242 33.902 245.541 30.187C245.89 26.4225 246.14 21.6673 246.292 15.9213L271.778 15.9354L271.757 53.0868L262.098 53.0815L262.114 24.4749Z" fill="#E30613"/>
    <path d="M12.1152 45.9298C15.1864 45.9315 17.515 45.1154 19.101 43.4816C20.7366 41.8479 21.555 39.8669 21.5563 37.5388C21.5579 34.7153 20.7169 32.6343 19.0335 31.2959C17.35 29.9575 14.7003 29.2874 11.0842 29.2853L5.73439 29.2824L5.73723 24.1555L14.7347 11.9005L18.9718 8.55923L13.1015 9.2247L0.618613 9.21778L0.623143 1.04447L29.0068 1.0602L29.0039 6.33571L18.5194 20.3731L15.249 22.3775L15.2488 22.749L18.3697 22.3049C20.1034 22.4545 21.7378 22.8517 23.2731 23.4965C24.8578 24.1413 26.2195 25.0832 27.3581 26.3223C28.5463 27.5118 29.4867 28.9983 30.1792 30.782C30.8717 32.5656 31.2173 34.6215 31.216 36.9497C31.2144 39.8723 30.7176 42.3983 29.7257 44.5278C28.7834 46.6573 27.445 48.4398 25.7104 49.8753C24.0254 51.3109 22.0434 52.3748 19.7644 53.0671C17.4854 53.7593 15.0333 54.1047 12.4079 54.1032C10.2283 54.102 7.9746 53.9026 5.64666 53.5051C3.31873 53.1075 1.4367 52.5368 0.000594719 51.793L2.60564 43.7697C3.8932 44.4144 5.30466 44.9353 6.84003 45.3324C8.42494 45.7296 10.1833 45.9287 12.1152 45.9298Z" fill="#E30613"/>
    <path d="M44.0899 53.0805L61.1274 13.0408L64.3988 9.40174L59.9402 10.1423L40.8444 10.1317L40.8494 1.06677L74.36 1.08534L74.3584 3.90884L53.5264 53.0858L44.0899 53.0805Z" fill="#E30613"/>
    <path d="M81.5071 27.021C81.5122 17.9065 83.0763 11.1458 86.1994 6.73892C89.3226 2.28248 93.8068 0.0558789 99.6519 0.0591184C105.893 0.0625775 110.474 2.26943 113.394 6.67969C116.314 11.0404 117.772 17.8275 117.767 27.0411C117.762 36.2051 116.173 43.0153 113 47.4717C109.877 51.9282 105.393 54.1548 99.5477 54.1515C93.3558 54.1481 88.7998 51.8174 85.8798 47.1595C82.9598 42.452 81.5023 35.7392 81.5071 27.021ZM91.1665 27.0263C91.1631 33.0696 91.8045 37.7511 93.0906 41.0706C94.4262 44.3407 96.6048 45.9766 99.6265 45.9783C102.549 45.9799 104.68 44.4702 106.019 41.4493C107.408 38.4284 108.104 33.6239 108.108 27.0357C108.111 21.042 107.469 16.4101 106.183 13.14C104.897 9.87 102.694 8.23411 99.5731 8.23239C96.601 8.23074 94.4454 9.76514 93.1062 12.8356C91.8166 15.906 91.17 20.6363 91.1665 27.0263Z" fill="#E30613"/>
</svg>
