<svg width="254" height="61" viewBox="0 0 254 61" fill="none" xmlns="http://www.w3.org/2000/svg">
    <path d="M35.2298 42.9517C35.2285 45.3789 34.8062 47.6325 33.9629 49.7125C33.1692 51.7926 32.0289 53.6 30.542 55.1347C29.0551 56.6695 27.2464 57.8821 25.1159 58.7726C23.0349 59.663 20.7312 60.1076 18.205 60.1062C15.6291 60.1048 13.2517 59.7072 11.0725 58.9134C8.943 58.0701 7.08611 56.8307 5.50189 55.1952C3.91767 53.5596 2.68043 51.5032 1.79017 49.026C0.899909 46.5487 0.455684 43.6754 0.457496 40.4061C0.460214 35.5021 1.15616 31.0691 2.54535 27.1071C3.98406 23.145 5.89308 19.7034 8.27239 16.7821C10.7013 13.8114 13.5013 11.4352 16.6726 9.65372C19.8934 7.8227 23.2872 6.61097 26.8541 6.01852L29.0046 13.6729C26.5276 14.0678 24.2486 14.8343 22.1675 15.9725C20.0864 17.1107 18.228 18.4719 16.5925 20.0561C15.0065 21.6403 13.6433 23.4228 12.5029 25.4036C11.412 27.3349 10.6431 29.3406 10.1961 31.4209C11.1875 30.183 12.476 29.1435 14.0616 28.3023C15.6472 27.4115 17.6289 26.9668 20.0066 26.9681C22.2357 26.9694 24.2912 27.3172 26.1731 28.0118C28.0551 28.7063 29.6644 29.7475 31.0011 31.1352C32.3378 32.4734 33.3771 34.1334 34.1191 36.1152C34.861 38.097 35.2312 40.3758 35.2298 42.9517ZM25.8674 43.4666C25.8704 37.9187 23.1475 35.1432 17.6987 35.1402C15.7173 35.1391 14.0328 35.5839 12.6453 36.4748C11.3074 37.3657 10.3656 38.4054 9.8201 39.594C9.72073 40.1388 9.67093 40.6094 9.67071 41.0056C9.6705 41.4019 9.67028 41.7982 9.67006 42.1945C9.6694 43.3833 9.84211 44.5723 10.1882 45.7613C10.5343 46.9008 11.0291 47.9413 11.6725 48.8828C12.3655 49.7749 13.232 50.5184 14.2719 51.1134C15.3118 51.6588 16.5501 51.932 17.9866 51.9328C20.3147 51.934 22.1975 51.1425 23.6349 49.5582C25.1218 47.9739 25.866 45.9434 25.8674 43.4666Z" fill="#E30613"/>
    <path d="M55.0923 51.5818C58.3616 51.5836 60.8636 50.7924 62.5982 49.2083C64.3328 47.6241 65.2009 45.445 65.2024 42.6711C65.2041 39.699 64.1898 37.5188 62.1597 36.1307C60.1295 34.7426 57.2321 34.0475 53.4674 34.0454L47.5973 34.2651L47.6124 7.07027L73.1726 7.08443L73.1675 16.1494L55.9293 16.1398L55.9237 26.1707L58.9703 25.8752C61.3975 25.9756 63.5768 26.4226 65.5082 27.2163C67.4892 28.0099 69.1728 29.1254 70.559 30.5627C71.9452 31.9504 73.0092 33.66 73.7511 35.6913C74.4931 37.6732 74.8633 39.9025 74.862 42.3792C74.8604 45.3018 74.3636 47.8773 73.3716 50.1059C72.3797 52.3344 70.9917 54.1912 69.2076 55.6763C67.473 57.1614 65.4167 58.2748 63.0386 59.0165C60.6605 59.7582 58.0597 60.1283 55.2362 60.1267C53.0071 60.1255 50.8772 59.9262 48.8465 59.5287C46.8653 59.1809 45.1813 58.6846 43.7947 58.0399L46.3998 50.0166C47.5388 50.5126 48.777 50.9096 50.1142 51.2075C51.5011 51.456 53.1604 51.5807 55.0923 51.5818Z" fill="#E30613"/>
    <path d="M83.8862 33.0221C83.8913 23.9076 85.4554 17.1469 88.5786 12.74C91.7017 8.28355 96.1859 6.05695 102.031 6.06019C108.273 6.06365 112.853 8.2705 115.773 12.6808C118.694 17.0415 120.151 23.8286 120.146 33.0422C120.141 42.2062 118.552 49.0164 115.379 53.4728C112.256 57.9292 107.772 60.1558 101.927 60.1526C95.7349 60.1492 91.1789 57.8185 88.2589 53.1605C85.339 48.4531 83.8814 41.7403 83.8862 33.0221ZM93.5456 33.0274C93.5422 39.0707 94.1836 43.7521 95.4697 47.0717C96.8053 50.3418 98.984 51.9776 102.006 51.9793C104.928 51.9809 107.059 50.4713 108.398 47.4504C109.787 44.4295 110.483 39.625 110.487 33.0368C110.49 27.043 109.849 22.4111 108.562 19.1411C107.276 15.8711 105.073 14.2352 101.952 14.2335C98.9801 14.2318 96.8245 15.7662 95.4853 18.8366C94.1957 21.9071 93.5491 26.6374 93.5456 33.0274Z" fill="#E30613"/>
    <path d="M139.409 51.6285C142.678 51.6303 145.18 50.8392 146.914 49.255C148.649 47.6708 149.517 45.4918 149.519 42.7178C149.52 39.7457 148.506 37.5656 146.476 36.1775C144.446 34.7894 141.548 34.0943 137.784 34.0922L131.914 34.3118L131.929 7.117L157.489 7.13116L157.484 16.1961L140.246 16.1866L140.24 26.2174L143.287 25.9219C145.714 26.0223 147.893 26.4693 149.824 27.263C151.805 28.0566 153.489 29.1721 154.875 30.6094C156.261 31.9972 157.325 33.7067 158.067 35.7381C158.809 37.7199 159.18 39.9492 159.178 42.4259C159.177 45.3485 158.68 47.9241 157.688 50.1526C156.696 52.3811 155.308 54.238 153.524 55.723C151.789 57.2081 149.733 58.3215 147.355 59.0632C144.977 59.8049 142.376 60.175 139.552 60.1734C137.323 60.1722 135.193 59.9729 133.163 59.5755C131.182 59.2276 129.498 58.7313 128.111 58.0866L130.716 50.0634C131.855 50.5593 133.093 50.9563 134.431 51.2543C135.817 51.5027 137.477 51.6275 139.409 51.6285Z" fill="#E30613"/>
    <path d="M213.259 42.4484L213.857 34.7213L213.486 34.7211L210.51 41.1095L203.519 52.6225L200.027 52.6206L192.38 41.0994L189.56 34.7078L189.114 34.7076L190.076 42.3613L190.067 59.4509L181.448 59.4461L181.468 22.2947L191.499 22.3003L200.036 36.274L202.114 40.9562L202.411 40.9564L204.569 36.1279L212.452 22.3119L222.558 22.3175L222.537 59.4689L213.249 59.4638L213.259 42.4484Z" fill="#E30613"/>
    <path d="M239.276 24.7045C241.455 24.7057 242.991 24.3598 243.883 23.6668C244.824 22.9738 245.32 22.0577 245.37 20.9184C245.322 19.7791 244.827 18.8872 243.886 18.2427C242.945 17.5982 241.212 17.2753 238.685 17.2739L235.565 17.2721L235.566 14.4486L240.993 8.50741L244.19 6.65161L239.88 7.09504L231.335 7.0903L231.339 0.0315384L252.367 0.0431922L252.364 4.64996L245.896 11.4822L243.369 12.8183L243.369 13.1898L245.598 12.9681C248.174 13.0686 250.179 13.8623 251.615 15.3492C253.1 16.7865 253.867 18.8426 253.915 21.5176C253.864 23.3008 253.467 24.8362 252.724 26.1237C252.029 27.4112 251.063 28.4757 249.824 29.3171C248.635 30.1585 247.223 30.7769 245.588 31.1723C243.953 31.5677 242.269 31.7649 240.535 31.7639C238.603 31.7629 236.795 31.6133 235.111 31.3151C233.476 30.9675 232.065 30.5209 230.876 29.9753L232.589 23.289C234.619 24.2313 236.848 24.7031 239.276 24.7045Z" fill="#E30613"/>
</svg>
