<svg width="519" height="56" viewBox="0 0 519 56" fill="none" xmlns="http://www.w3.org/2000/svg">
    <path d="M2.82988 45.8844L13.158 45.8901L13.1742 16.5405L14.2916 11.4885L10.7226 15.8704L4.10716 20.3992L0.0235906 14.8242L16.9722 1.1619L22.3963 1.16491L22.3715 45.8952L32.4767 45.9008L32.4722 54.0741L2.82535 54.0577L2.82988 45.8844Z" fill="#E30613"/>
    <path d="M72.6231 46.5918C75.8924 46.5936 78.3943 45.8024 80.129 44.2182C81.8636 42.6341 82.7316 40.455 82.7332 37.681C82.7348 34.7089 81.7206 32.5288 79.6904 31.1407C77.6602 29.7526 74.7628 29.0575 70.9981 29.0554L65.1281 29.2751L65.1431 2.08023L90.7033 2.0944L90.6983 11.1593L73.46 11.1498L73.4545 21.1807L76.5011 20.8851C78.9282 20.9856 81.1075 21.4326 83.039 22.2262C85.0199 23.0199 86.7035 24.1354 88.0897 25.5726C89.4759 26.9604 90.54 28.67 91.2819 30.7013C92.0238 32.6831 92.3941 34.9124 92.3927 37.3892C92.3911 40.3118 91.8943 42.8873 90.9024 45.1158C89.9104 47.3444 88.5224 49.2012 86.7383 50.6863C85.0038 52.1713 82.9474 53.2847 80.5693 54.0265C78.1912 54.7682 75.5904 55.1382 72.7669 55.1367C70.5378 55.1354 68.4079 54.9361 66.3772 54.5387C64.396 54.1909 62.7121 53.6946 61.3255 53.0499L63.9305 45.0266C65.0695 45.5226 66.3077 45.9195 67.645 46.2175C69.0318 46.4659 70.6912 46.5907 72.6231 46.5918Z" fill="#E30613"/>
    <path d="M114.781 46.6151C118.051 46.6169 120.552 45.8258 122.287 44.2416C124.022 42.6574 124.89 40.4784 124.891 37.7044C124.893 34.7323 123.879 32.5522 121.849 31.1641C119.818 29.776 116.921 29.0809 113.156 29.0788L107.286 29.2984L107.301 2.1036L132.861 2.11776L132.856 11.1827L115.618 11.1732L115.613 21.204L118.659 20.9085C121.086 21.0089 123.266 21.4559 125.197 22.2496C127.178 23.0432 128.862 24.1587 130.248 25.596C131.634 26.9838 132.698 28.6933 133.44 30.7247C134.182 32.7065 134.552 34.9358 134.551 37.4125C134.549 40.3351 134.052 42.9107 133.061 45.1392C132.069 47.3677 130.681 49.2246 128.896 50.7096C127.162 52.1947 125.106 53.3081 122.727 54.0498C120.349 54.7915 117.749 55.1616 114.925 55.16C112.696 55.1588 110.566 54.9595 108.535 54.5621C106.554 54.2142 104.87 53.7179 103.484 53.0732L106.089 45.05C107.228 45.5459 108.466 45.9429 109.803 46.2409C111.19 46.4893 112.849 46.6141 114.781 46.6151Z" fill="#E30613"/>
    <path d="M145.128 41.4308C145.129 39.697 145.353 38.1616 145.799 36.8244C146.246 35.4376 146.866 34.1996 147.659 33.1102C148.502 31.9714 149.468 30.9565 150.558 30.0654C151.698 29.1744 152.912 28.3578 154.201 27.6155C151.774 26.0785 149.868 24.319 148.482 22.3368C147.096 20.3051 146.404 17.8032 146.406 14.831C146.407 12.8992 146.755 11.0913 147.449 9.40752C148.193 7.72374 149.234 6.26303 150.572 5.02539C151.96 3.78778 153.62 2.82276 155.552 2.13034C157.484 1.43791 159.664 1.09238 162.091 1.09372C164.321 1.09496 166.351 1.39329 168.184 1.98873C170.016 2.58417 171.576 3.42713 172.863 4.51762C174.2 5.60814 175.215 6.94615 175.908 8.53166C176.65 10.0677 177.02 11.7768 177.019 13.6592C177.018 16.5817 176.348 19.0581 175.009 21.0883C173.72 23.1186 171.812 24.9751 169.285 26.6579C172.256 28.3933 174.484 30.3016 175.969 32.3829C177.503 34.4642 178.27 37.1396 178.268 40.4089C178.266 42.638 177.844 44.6687 177.001 46.501C176.208 48.2838 175.067 49.8188 173.581 51.1059C172.094 52.393 170.31 53.4075 168.229 54.1493C166.148 54.8417 163.87 55.1872 161.393 55.1858C158.916 55.1844 156.662 54.8364 154.632 54.1418C152.651 53.4968 150.942 52.5794 149.506 51.3898C148.12 50.2001 147.031 48.763 146.239 47.0784C145.497 45.3938 145.127 43.5112 145.128 41.4308ZM169.054 40.4781C169.055 39.3388 168.783 38.2984 168.238 37.3569C167.694 36.4154 166.976 35.5729 166.085 34.8294C165.243 34.0364 164.278 33.3176 163.189 32.673C162.149 32.0285 161.084 31.4087 159.995 30.8137C157.666 32.1498 156.055 33.6103 155.162 35.1949C154.319 36.73 153.898 38.2654 153.897 39.801C153.896 41.7824 154.563 43.4917 155.9 44.929C157.286 46.3167 159.193 47.0113 161.62 47.0126C163.849 47.0138 165.633 46.4699 166.971 45.3809C168.358 44.2919 169.053 42.6576 169.054 40.4781ZM155.619 14.9848C155.619 16.1736 155.841 17.214 156.286 18.1059C156.732 18.9977 157.326 19.7906 158.068 20.4845C158.861 21.1289 159.727 21.7486 160.668 22.3435C161.658 22.889 162.674 23.4097 163.713 23.9056C166.687 21.3809 168.175 18.6078 168.176 15.5861C168.177 13.5057 167.559 11.945 166.321 10.904C165.133 9.81361 163.672 9.26791 161.938 9.26695C159.759 9.26574 158.149 9.8345 157.108 10.9732C156.116 12.112 155.62 13.4492 155.619 14.9848Z" fill="#E30613"/>
    <path d="M217.891 46.6723C221.16 46.6741 223.662 45.8829 225.397 44.2988C227.131 42.7146 227.999 40.5355 228.001 37.7615C228.003 34.7894 226.988 32.6093 224.958 31.2212C222.928 29.8331 220.031 29.138 216.266 29.1359L210.396 29.3556L210.411 2.16074L235.971 2.17491L235.966 11.2399L218.728 11.2303L218.722 21.2612L221.769 20.9657C224.196 21.0661 226.375 21.5131 228.307 22.3067C230.288 23.1004 231.971 24.2159 233.357 25.6532C234.744 27.0409 235.808 28.7505 236.55 30.7818C237.292 32.7636 237.662 34.9929 237.661 37.4697C237.659 40.3923 237.162 42.9678 236.17 45.1964C235.178 47.4249 233.79 49.2817 232.006 50.7668C230.272 52.2519 228.215 53.3653 225.837 54.107C223.459 54.8487 220.858 55.2188 218.035 55.2172C215.806 55.216 213.676 55.0166 211.645 54.6192C209.664 54.2714 207.98 53.7751 206.593 53.1304L209.198 45.1071C210.337 45.6031 211.575 46.0001 212.913 46.298C214.3 46.5464 215.959 46.6712 217.891 46.6723Z" fill="#E30613"/>
    <path d="M246.685 28.1125C246.69 18.9981 248.254 12.2374 251.377 7.83046C254.5 3.37402 258.984 1.14742 264.83 1.15066C271.071 1.15412 275.652 3.36098 278.572 7.77123C281.492 12.1319 282.95 18.9191 282.945 28.1326C282.939 37.2966 281.351 44.1069 278.178 48.5633C275.055 53.0197 270.57 55.2463 264.725 55.2431C258.533 55.2396 253.977 52.9089 251.057 48.251C248.138 43.5436 246.68 36.8307 246.685 28.1125ZM256.344 28.1179C256.341 34.1612 256.982 38.8426 258.268 42.1622C259.604 45.4322 261.782 47.0681 264.804 47.0698C267.727 47.0714 269.858 45.5618 271.197 42.5409C272.585 39.52 273.281 34.7155 273.285 28.1273C273.288 22.1335 272.647 17.5016 271.361 14.2316C270.075 10.9615 267.871 9.32566 264.751 9.32393C261.779 9.32228 259.623 10.8567 258.284 13.9271C256.994 16.9976 256.348 21.7278 256.344 28.1179Z" fill="#E30613"/>
    <path d="M324.503 38.1122C324.501 40.5395 324.079 42.7931 323.236 44.8731C322.442 46.9531 321.302 48.7605 319.815 50.2953C318.328 51.8301 316.519 53.0427 314.389 53.9331C312.308 54.8236 310.004 55.2682 307.478 55.2668C304.902 55.2653 302.525 54.8677 300.345 54.074C298.216 53.2307 296.359 51.9913 294.775 50.3557C293.191 48.7202 291.953 46.6638 291.063 44.1865C290.173 41.7093 289.729 38.836 289.73 35.5667C289.733 30.6627 290.429 26.2297 291.818 22.2676C293.257 18.3056 295.166 14.864 297.545 11.9427C299.974 8.97193 302.774 6.5958 305.945 4.81429C309.166 2.98327 312.56 1.77154 316.127 1.17909L318.278 8.83348C315.801 9.22838 313.521 9.99492 311.44 11.1331C309.359 12.2712 307.501 13.6324 305.865 15.2166C304.279 16.8009 302.916 18.5834 301.776 20.5642C300.685 22.4954 299.916 24.5012 299.469 26.5814C300.46 25.3436 301.749 24.3041 303.335 23.4628C304.92 22.5721 306.902 22.1274 309.279 22.1287C311.509 22.1299 313.564 22.4778 315.446 23.1724C317.328 23.8669 318.937 24.908 320.274 26.2957C321.611 27.6339 322.65 29.2939 323.392 31.2758C324.134 33.2576 324.504 35.5364 324.503 38.1122ZM315.14 38.6272C315.143 33.0792 312.42 30.3037 306.972 30.3007C304.99 30.2996 303.306 30.7445 301.918 31.6354C300.58 32.5263 299.639 33.566 299.093 34.7545C298.994 35.2994 298.944 35.7699 298.944 36.1662C298.943 36.5625 298.943 36.9588 298.943 37.355C298.942 38.5439 299.115 39.7328 299.461 40.9219C299.807 42.0614 300.302 43.1019 300.945 44.0434C301.638 44.9354 302.505 45.6789 303.545 46.2739C304.585 46.8194 305.823 47.0925 307.259 47.0933C309.588 47.0946 311.47 46.3031 312.908 44.7188C314.395 43.1345 315.139 41.1039 315.14 38.6272Z" fill="#E30613"/>
    <path d="M362.27 38.9454L359.669 38.9439L359.661 54.3246L350.001 54.3192L350.022 17.1679L359.681 17.1732L359.672 32.9997L361.976 31.9607L370.678 17.1793L381.006 17.185L372.008 31.2976L368.217 34.119L372.376 37.0191L382.397 54.3372L371.326 54.3311L362.27 38.9454Z" fill="#E30613"/>
    <path d="M421.596 14.4583C421.595 15.7462 421.421 17.034 421.074 18.3218C420.776 19.6095 420.255 20.7981 419.511 21.8874C418.768 22.9273 417.801 23.8679 416.612 24.7093C415.423 25.5012 413.986 26.0949 412.301 26.4902L412.301 26.936C413.787 27.1845 415.199 27.6064 416.536 28.2015C417.873 28.7967 419.037 29.6147 420.027 30.6555C421.017 31.6962 421.784 32.9598 422.328 34.4462C422.922 35.9326 423.218 37.6912 423.217 39.7222C423.215 42.3971 422.644 44.7249 421.504 46.7057C420.363 48.6369 418.827 50.2212 416.894 51.4585C415.011 52.6959 412.856 53.6111 410.429 54.2041C408.001 54.7972 405.499 55.093 402.923 55.0916C402.081 55.0911 400.992 55.0905 399.654 55.0898C398.366 55.0891 396.955 55.0388 395.419 54.9388C393.933 54.8885 392.397 54.7886 390.812 54.6391C389.277 54.4896 387.865 54.2659 386.577 53.968L386.606 2.69907C387.547 2.55099 388.612 2.40298 389.801 2.25503C391.04 2.10711 392.352 1.984 393.739 1.8857C395.126 1.7874 396.538 1.71388 397.975 1.66513C399.461 1.61642 400.922 1.59247 402.359 1.59326C404.786 1.59461 407.139 1.79405 409.417 2.1916C411.745 2.53963 413.8 3.18473 415.583 4.12689C417.415 5.06907 418.876 6.38257 419.965 8.06737C421.054 9.75217 421.597 11.8825 421.596 14.4583ZM403.002 46.6954C404.241 46.6961 405.43 46.5482 406.569 46.2516C407.758 45.955 408.799 45.5098 409.691 44.9159C410.583 44.2724 411.301 43.4802 411.847 42.5394C412.392 41.5985 412.665 40.4841 412.666 39.1962C412.667 37.5615 412.346 36.2735 411.702 35.3319C411.059 34.3904 410.217 33.6717 409.177 33.1757C408.137 32.6303 406.973 32.2829 405.685 32.1336C404.398 31.9842 403.11 31.9092 401.822 31.9085L396.398 31.9055L396.39 46.246C396.637 46.3452 397.034 46.4197 397.578 46.4695C398.123 46.5194 398.693 46.5692 399.287 46.6191C399.931 46.6194 400.575 46.6446 401.219 46.6944C401.913 46.6948 402.507 46.6952 403.002 46.6954ZM399.671 24.1798C400.365 24.1802 401.157 24.1559 402.049 24.1068C402.99 24.0578 403.758 23.984 404.353 23.8852C406.235 23.2918 407.846 22.4011 409.184 21.213C410.571 20.0249 411.266 18.4649 411.267 16.5331C411.267 15.2452 411.02 14.18 410.526 13.3376C410.031 12.4953 409.362 11.8262 408.52 11.3303C407.728 10.8346 406.812 10.4873 405.772 10.2886C404.732 10.0899 403.642 9.99019 402.503 9.98956C401.215 9.98885 400.026 10.013 398.936 10.0619C397.846 10.1108 397.004 10.1847 396.41 10.2834L396.402 24.178L399.671 24.1798Z" fill="#E30613"/>
    <path d="M457.019 25.772L446.542 25.7662L446.526 54.3727L436.57 54.3672L436.586 25.7606L426.109 25.7548L426.114 17.21L457.024 17.2272L457.019 25.772Z" fill="#E30613"/>
    <path d="M467.805 0.0691778L469.883 3.48826L470.995 7.87274L472.112 3.7867L474.195 0.147021L478.949 2.75025L476.717 6.61276L473.149 9.80581L477.979 8.61964L482.215 8.62198L482.212 14.0461L478.125 14.0438L473.593 12.8525L477.306 16.3468L479.162 19.4685L474.405 22.2151L472.401 18.796L470.918 14.0398L469.949 18.3489L467.793 21.9885L463.039 19.2367L465.195 15.597L468.541 12.8497L464.453 14.0362L460.069 14.0338L460.072 8.53541L464.531 8.53788L468.914 9.80346L465.126 6.53203L463.048 2.81575L467.805 0.0691778Z" fill="#E30613"/>
    <path d="M497.288 17.2495L497.283 25.72C497.283 27.2556 497.331 28.5931 497.43 29.7324C497.578 30.8223 497.825 31.7388 498.171 32.482C498.567 33.1757 499.087 33.6962 499.731 34.0433C500.424 34.3904 501.316 34.5643 502.405 34.5649C503.842 34.5657 505.08 34.393 506.121 34.0468C507.211 33.7007 508.103 33.2801 508.796 32.7851L508.805 17.2559L518.464 17.2612L518.444 54.4126L508.784 54.4072L508.793 39.8439C508.049 40.3884 506.91 41.0069 505.374 41.6996C503.838 42.3427 501.782 42.6635 499.206 42.6621C497.373 42.6611 495.739 42.462 494.302 42.065C492.866 41.6679 491.653 40.9737 490.663 39.9825C489.672 38.9912 488.905 37.6781 488.361 36.0431C487.867 34.4082 487.62 32.3524 487.622 29.8756L487.629 17.2441L497.288 17.2495Z" fill="#E30613"/>
</svg>
