<svg width="206" height="87" viewBox="0 0 206 87" fill="none" xmlns="http://www.w3.org/2000/svg">
    <path d="M133.961 0C133.961 1.21076 131.376 9.53028 122.478 14.8702C114.622 19.5843 96.4931 17.5301 88.1464 19.7067C90.847 17.0062 93.7041 11.7682 103.615 8.7071C110.268 6.64616 125.499 8.45546 133.961 0Z" fill="#B2B2B2"/>
    <path d="M71.4667 41.4543C71.4667 38.3116 73.7659 26.1012 88.8741 22.9583C99.5404 20.7408 109.907 22.3189 117.295 20.7543C124.682 19.1965 130.818 12.0812 130.818 12.0812C130.818 12.0812 130.09 31.2981 111.479 35.2912C95.7311 38.6652 84.8811 28.4003 71.4667 41.4543Z" fill="#E30613"/>
    <path d="M3.19051 84.7858H1.89125V79.6024H0V78.5209H5.08157V79.6024H3.19051V84.7858Z" fill="black"/>
    <path d="M17.4756 78.3575C18.3055 78.3575 20.4823 78.7181 20.4823 81.6568C20.4823 84.5887 18.3055 84.9561 17.4756 84.9561C16.6456 84.9561 14.4688 84.5955 14.4688 81.6568C14.4758 78.7181 16.6458 78.3575 17.4756 78.3575ZM17.4756 83.8471C18.183 83.8471 19.1761 83.405 19.1761 81.6568C19.1761 79.9017 18.1829 79.4665 17.4756 79.4665C16.7681 79.4665 15.775 79.9086 15.775 81.6568C15.775 83.405 16.7683 83.8471 17.4756 83.8471Z" fill="black"/>
    <path d="M31.6587 84.7858H30.3527V78.5207L33.2166 78.5209C34.4273 78.5209 35.1485 79.2895 35.1485 80.5209C35.1485 81.0787 34.8355 82.5209 33.1554 82.5209L31.652 82.5207V84.7858H31.6587ZM31.6587 81.4458H32.8764C33.7403 81.4458 33.8492 80.8608 33.8492 80.473C33.8492 79.8608 33.5158 79.6022 32.6996 79.6022L31.652 79.6024V81.4458H31.6587Z" fill="black"/>
    <path d="M48.2839 78.5209V79.6024H45.1207V84.7858H43.8215V78.5209H48.2839Z" fill="black"/>
    <path d="M59.576 78.3575C60.406 78.3575 62.5828 78.7181 62.5828 81.6568C62.5828 84.5887 60.406 84.9561 59.576 84.9561C58.7461 84.9561 56.5693 84.5955 56.5693 81.6568C56.5693 78.7181 58.7461 78.3575 59.576 78.3575ZM59.576 83.8471C60.2835 83.8471 61.2766 83.405 61.2766 81.6568C61.2766 79.9017 60.2833 79.4665 59.576 79.4665C58.8685 79.4665 57.8755 79.9086 57.8755 81.6568C57.8755 83.405 58.8685 83.8471 59.576 83.8471Z" fill="black"/>
    <path d="M71.8477 78.5209H74.936C76.4665 78.5209 76.8543 79.48 76.8543 80.1194C76.8543 81.0174 76.3508 81.2825 76.0924 81.4119C76.861 81.6977 77.0515 82.303 77.0515 82.9152C77.0515 83.4526 76.8543 84.7858 74.5415 84.7858H71.8477V78.5209ZM73.1537 80.9698H74.6842C75.2012 80.9698 75.6094 80.7725 75.6094 80.269C75.6094 79.7588 75.2488 79.5957 74.6503 79.5957H73.1605V80.9698H73.1537ZM73.1537 83.7112H74.7388C75.3782 83.7112 75.7455 83.4254 75.7455 82.786C75.7455 82.2418 75.2762 82.0241 74.8068 82.0241H73.147V83.7112H73.1537Z" fill="black"/>
    <path d="M87.6293 80.8949H89.2619C90.4727 80.8949 91.4046 81.6296 91.4046 82.8745C91.4046 84.1057 90.4999 84.7927 89.2482 84.7927H86.33V78.5276H87.6362V80.8949H87.6293ZM87.6293 83.7112H89.1055C89.7382 83.7112 90.0988 83.3234 90.0988 82.8064C90.0988 82.2555 89.6906 81.9765 89.1055 81.9765H87.6293V83.7112ZM93.7991 84.7858H92.4931V78.5207L93.7991 78.5209V84.7858Z" fill="black"/>
    <path d="M104.588 82.888H104.608L107.091 78.5208H108.56V84.786L107.254 84.7858V80.3234H107.234L104.676 84.7858H103.275V78.5206L104.581 78.5208V82.888H104.588ZM105.914 77.3031C106.649 77.3031 106.717 76.9358 106.758 76.6976H107.336C107.309 77.0513 107.077 77.9697 105.914 77.9697C104.751 77.9697 104.513 77.0515 104.493 76.6976H105.071C105.112 76.9358 105.18 77.3031 105.914 77.3031Z" fill="black"/>
    <path d="M134.124 83.7112H136.566V78.5209H137.865V83.7112H138.491V86.1192H137.274V84.7858H132.818V78.5209H134.124V83.7112Z" fill="black"/>
    <path d="M154.994 78.5209V79.6024H151.674V80.8949H154.722V81.9765H151.674V83.7112H155.137V84.7858H150.368V78.5209H154.994Z" fill="black"/>
    <path d="M168.245 80.8949H170.687V78.5209H171.993V84.7858H170.687V81.9765H168.245V84.7858H166.946V78.5209H168.245V80.8949Z" fill="black"/>
    <path d="M186.544 84.7858H185.244V79.6024H183.353V78.5209H188.435V79.6024H186.544V84.7858Z" fill="black"/>
    <path d="M201.822 84.7858H200.516V78.5207L203.38 78.5209C204.591 78.5209 205.312 79.2895 205.312 80.5209C205.312 81.0787 204.999 82.5209 203.319 82.5209L201.815 82.5207V84.7858H201.822ZM201.822 81.4458H203.04C203.903 81.4458 204.012 80.8608 204.012 80.473C204.012 79.8608 203.672 79.6022 202.863 79.6022L201.822 79.6024V81.4458Z" fill="black"/>
    <path d="M3.83665 59.2835L10.4894 51.624H14.945L7.28555 59.9842L15.3465 69.732H10.6799L4.24486 61.6167L3.83665 62.0249V69.732H0.312927V51.624H3.83665V59.2835Z" fill="#E30613"/>
    <path d="M34.2368 60.6915C34.2368 66.2015 30.271 70.14 24.5706 70.14C18.8701 70.14 14.9044 66.2013 14.9044 60.6915C14.9044 55.1815 18.8703 51.2156 24.5706 51.2156C30.2779 51.2158 34.2368 55.1817 34.2368 60.6915ZM30.5976 60.6915C30.5976 57.0249 28.1011 54.4196 24.5706 54.4196C21.0401 54.4196 18.5436 57.0249 18.5436 60.6915C18.5436 64.3581 21.0401 66.9362 24.5706 66.9362C28.1011 66.9362 30.5976 64.3581 30.5976 60.6915Z" fill="#E30613"/>
    <path d="M72.7456 60.6915C72.7456 66.2015 68.7797 70.14 63.0793 70.14C57.379 70.14 53.4131 66.2013 53.4131 60.6915C53.4131 55.1815 57.379 51.2156 63.0793 51.2156C68.7797 51.2156 72.7456 55.1817 72.7456 60.6915ZM69.1064 60.6915C69.1064 57.0249 66.6098 54.4196 63.0793 54.4196C59.5489 54.4196 57.0523 57.0249 57.0523 60.6915C57.0523 64.3581 59.5489 66.9362 63.0793 66.9362C66.6098 66.9362 69.1064 64.3581 69.1064 60.6915Z" fill="#E30613"/>
    <path d="M110.064 54.6647H102.819V58.7121H109.792V61.7528H102.819V66.6913H110.064V69.732H99.2887V51.624H110.064V54.6647Z" fill="#E30613"/>
    <path d="M118.118 58.6304H125.172V51.624H128.703V69.732H125.172V61.671H118.118V69.732H114.587V51.624H118.118V58.6304Z" fill="#E30613"/>
    <path d="M156.654 59.2835L163.3 51.624H167.755L160.096 59.9842L168.164 69.732H163.49L157.055 61.6167L156.654 62.0249V69.732H153.123V51.624H156.654V59.2835Z" fill="#E30613"/>
    <path d="M174.653 51.624V63.0588L182.462 51.2158H184.904V69.732H181.374V58.2428L173.572 70.0858H171.13V51.624H174.653Z" fill="#E30613"/>
    <path d="M194.237 51.624V63.0588L202.046 51.2158H204.489V69.732H200.958V58.2428L193.149 70.0858H190.707V51.624H194.237Z" fill="#E30613"/>
    <path d="M195.319 46.386C195.89 47.903 197.407 47.9574 197.761 47.9574C198.115 47.9574 199.632 47.903 200.203 46.386L202.645 47.3656C201.938 49.209 200.258 50.4063 197.761 50.4063C195.265 50.4063 193.578 49.209 192.877 47.3656L195.319 46.386Z" fill="#E30613"/>
    <path d="M92.5612 51.4879H89.2347L84.7384 64.5826L80.4323 51.4879H77.1059L74.0176 69.732H77.6024L79.4459 58.576L83.1736 69.8001H86.2417L90.1395 58.576L91.7652 69.732H95.35L92.5612 51.4879ZM41.8556 51.4879L35.0872 69.8001H38.951L43.6516 56.5286L48.3521 69.8001H52.2158L45.495 51.4879H41.8556Z" fill="#E30613"/>
    <path d="M146.817 64.2833C145.777 65.9294 143.974 66.9294 141.77 66.9294C138.24 66.9294 135.743 64.3514 135.743 60.6848C135.743 57.0181 138.24 54.4128 141.77 54.4128C144.008 54.4128 145.831 55.4672 146.865 57.1747L149.538 54.8074C147.838 52.5762 145.103 51.2088 141.77 51.2088C136.07 51.2088 132.104 55.1747 132.104 60.6848C132.104 66.1948 136.07 70.1333 141.77 70.1333C145.028 70.1333 147.709 68.8477 149.416 66.7185L146.817 64.2833Z" fill="#E30613"/>
</svg>
