<svg width="203" height="39" viewBox="0 0 203 39" fill="none" xmlns="http://www.w3.org/2000/svg">
    <path d="M26.7881 29.116H28.7244V36.3399H32.5972V37.9084H26.7881V29.116Z" fill="white"/>
    <path d="M33.7568 29.116H39.7438V30.733H35.7013V32.6208H38.6361V34.1549H35.6932V36.3399H39.958V37.9084H33.7568V29.116Z" fill="white"/>
    <path d="M40.8594 33.4758C40.8594 30.7208 42.3935 28.9502 44.8635 28.9502C46.527 28.9502 47.8569 29.6152 48.4168 31.7658L46.6462 32.2529C46.2783 31.0402 45.7185 30.5551 44.8513 30.5551C44.1399 30.5551 42.8079 30.9694 42.8079 33.4414C42.8079 35.9134 43.9964 36.5177 44.9362 36.5177C45.8761 36.5177 46.5532 35.9114 46.7412 34.9392H45.2091V33.5H48.5826V37.9084H47.0262V36.6956H46.9999C46.8099 37.2191 46.0378 38.0741 44.7078 38.0741C42.0479 38.0741 40.8594 36.1256 40.8594 33.4758Z" fill="white"/>
    <path d="M49.6621 29.116H51.6106L52.5383 33.1302C52.7147 33.7635 52.857 34.4058 52.9648 35.0544H52.9891C53.0962 34.3308 53.2397 33.7729 53.3933 33.1423L54.2766 29.116H56.0573L57.0093 33.1585C57.1792 33.7804 57.3175 34.4104 57.4237 35.0463H57.448C57.5672 34.252 57.6743 33.8942 57.8401 33.1827L58.7314 29.118H60.5142L58.2201 37.9104H56.5687L55.1781 31.7921H55.1559L53.6702 37.9084H51.9946L49.6621 29.116Z" fill="white"/>
    <path d="M61.6719 29.116H67.6588V30.733H63.6163V32.6208H66.5512V34.1549H63.6082V36.3399H67.8731V37.9084H61.6719V29.116Z" fill="white"/>
    <path d="M71.6049 29.0876H73.4463L76.559 37.9144H74.5984L73.9435 35.9538H70.95L70.2729 37.9144H68.4922L71.6049 29.0876ZM73.4928 34.545L72.4821 31.5495H72.468L71.425 34.545H73.4928Z" fill="white"/>
    <path d="M77.6621 29.116H80.9567C83.1195 29.116 84.4131 29.8881 84.4131 31.8366C84.4131 33.2272 83.7602 33.9872 82.5838 34.3449L84.5445 37.9084H82.5091L80.6798 34.5935H79.5621V37.9084H77.6621V29.116ZM80.882 33.0958C81.9977 33.0958 82.5333 32.7764 82.5333 31.8831C82.5333 30.9897 81.9977 30.6946 80.882 30.6946H79.5621V33.0938L80.882 33.0958Z" fill="white"/>
    <path d="M88.5186 35.7336C88.5186 34.3188 89.4706 33.6194 90.5398 33.106C90.2004 32.5149 90.0084 31.8507 89.9799 31.1697C89.9799 30.0176 90.752 28.9463 92.4762 28.9463C94.079 28.9463 94.7561 29.8841 94.7561 30.8705C94.7561 32.1904 93.794 32.8554 92.7349 33.389C92.8905 33.6154 93.0805 33.8418 93.2705 34.0782C93.5681 34.4586 93.8895 34.8198 94.2326 35.1596C94.5393 34.6108 94.7292 34.0046 94.7905 33.3789H96.4176C96.3028 34.3316 95.994 35.2506 95.5101 36.0793C96.0061 36.3475 96.5632 36.4826 97.1271 36.4714V38.0278C95.9871 38.0156 95.12 37.8014 94.3236 37.3506C93.591 37.8445 92.7226 38.0974 91.8395 38.0742C89.6484 38.0742 88.5186 37.1606 88.5186 35.7336ZM93.0462 36.3986C92.6182 35.9726 92.2172 35.5203 91.8455 35.0444C91.6313 34.7715 91.419 34.4865 91.2392 34.2258C90.752 34.5451 90.4569 34.9494 90.4569 35.4608C90.4569 36.2814 91.0168 36.7443 91.8476 36.7443C92.272 36.7466 92.6881 36.6266 93.0462 36.3986ZM93.1654 30.9413C93.1654 30.5835 92.9976 30.1914 92.5105 30.1914C92.084 30.1914 91.7384 30.4764 91.7384 31.0585C91.7525 31.5233 91.8831 31.9772 92.1184 32.3784C92.7248 32.0388 93.1654 31.6123 93.1654 30.9473V30.9413Z" fill="white"/>
    <path d="M101.254 29.116H104.771C106.388 29.116 107.906 29.5081 107.906 31.2908C107.906 32.5379 107.122 33.1322 106.23 33.3121V33.3323C107.299 33.5223 108.144 34.0802 108.144 35.4829C108.144 37.2535 106.588 37.9084 104.949 37.9084H101.254V29.116ZM104.581 32.7401C105.592 32.7401 106.052 32.3601 106.052 31.683C106.052 31.0058 105.648 30.6137 104.603 30.6137H103.154V32.7401H104.581ZM104.71 36.4349C105.779 36.4349 106.254 36.0064 106.254 35.2585C106.254 34.5107 105.697 34.1064 104.637 34.1064H103.164V36.4349H104.71Z" fill="white"/>
    <path d="M109.724 29.116H115.723V30.733H111.66V32.6208H114.595V34.1549H111.66V36.3399H115.925V37.9084H109.724V29.116Z" fill="white"/>
    <path d="M119.656 29.0876H121.497L124.616 37.9084H122.655L122 35.9478H119.001L118.324 37.9084H116.543L119.656 29.0876ZM121.544 34.545L120.533 31.5495H120.511L119.476 34.545H121.544Z" fill="white"/>
    <path d="M125.297 33.5C125.297 30.4479 127.067 28.9502 129.289 28.9502C131.51 28.9502 132.472 30.1387 132.852 31.7193L131.033 32.2529C130.748 31.2423 130.32 30.5551 129.287 30.5551C127.957 30.5551 127.243 31.6829 127.243 33.5C127.243 35.3535 127.979 36.5177 129.311 36.5177C130.344 36.5177 130.855 35.8649 131.165 34.6643L132.984 35.0685C132.555 36.8391 131.51 38.0741 129.301 38.0741C126.995 38.0741 125.297 36.6006 125.297 33.5Z" fill="white"/>
    <path d="M134.373 29.116H136.309V32.5238H139.776V29.116H141.712V37.9084H139.776V34.1549H136.309V37.9084H134.373V29.116Z" fill="white"/>
    <path d="M142.854 29.116H144.802L145.73 33.1302C145.906 33.7635 146.048 34.4058 146.156 35.0544H146.18C146.282 34.4105 146.417 33.7723 146.585 33.1423L147.476 29.1261H149.257L150.209 33.1686C150.375 33.7906 150.51 34.4207 150.613 35.0564H150.637C150.757 34.2621 150.864 33.9043 151.029 33.1928L151.921 29.1281H153.722L151.428 37.9205H149.776L148.386 31.8022H148.363L146.878 37.9205H145.202L142.854 29.116Z" fill="white"/>
    <path d="M154.864 29.116H160.853V30.733H156.811V32.6208H159.746V34.1549H156.801V36.3399H161.065V37.9084H154.864V29.116Z" fill="white"/>
    <path d="M164.796 29.0876H166.638L169.75 37.9144H167.79L167.135 35.9538H164.141L163.464 37.9144H161.684L164.796 29.0876ZM166.684 34.545L165.674 31.5495H165.647L164.616 34.545H166.684Z" fill="white"/>
    <path d="M170.854 29.116H174.157C176.32 29.116 177.614 29.8881 177.614 31.8366C177.614 33.2272 176.961 33.9872 175.784 34.3449L177.745 37.9084H175.701L173.882 34.5935H172.765V37.9084H170.865L170.854 29.116ZM174.074 33.0958C175.19 33.0958 175.726 32.7764 175.726 31.8831C175.726 30.9897 175.19 30.6946 174.074 30.6946H172.754V33.0938L174.074 33.0958Z" fill="white"/>
    <path d="M31.9681 0.557864H35.3678L42.6443 21.2292H36.055L35.2647 18.4823H28.6714L27.8831 21.2292H21.3565L28.633 0.557864H31.9681ZM31.9681 14.1892H34.0641L32.0024 7.01373L29.9084 14.1892H31.9681ZM192.36 7.01373L190.266 14.1892H194.422L192.36 7.01373ZM192.36 18.4823H189.066L188.241 21.2292H181.716L188.993 0.557864H195.724L203 21.2292H196.407L195.653 18.4823H192.36ZM14.3185 13.227H20.6026C20.4308 15.9396 19.4687 18.0356 17.7183 19.5475C16.0002 21.0574 13.6313 21.7709 10.6783 21.7709C7.34724 21.7709 4.77217 20.8087 2.84996 18.8845C0.962114 16.928 0 14.2842 0 10.9208C0 7.55745 0.927753 4.88334 2.8156 2.92677C4.70344 1.00456 7.27851 0.00808518 10.5408 0.00808518C13.5282 0.00808518 15.8991 0.764032 17.6152 2.20518C19.3312 3.64633 20.2933 5.708 20.4995 8.38616H14.1124C14.0436 7.32298 13.7081 6.53065 13.1159 5.98289C12.4994 5.46748 11.6747 5.19259 10.6095 5.19259C9.30583 5.19259 8.34371 5.67364 7.69085 6.60746C7.03798 7.56755 6.69437 9.01072 6.69437 10.935C6.69437 12.8228 7.03798 14.2296 7.75957 15.1917C8.44679 16.1174 9.44327 16.6329 10.7914 16.6329C11.6883 16.6605 12.5632 16.3527 13.2452 15.7698C13.8294 15.1513 14.2074 14.3266 14.3104 13.227H14.3185ZM83.2006 21.2292V0.557864H99.7162V5.50184H89.8627V8.28307H98.172V13.0229H89.8627V16.1821H100.131V21.2352L83.2006 21.2292ZM61.9452 21.2292V16.2488L71.5259 5.91417H62.2544V0.557864H79.6978V5.50184L70.014 15.9497H80.2132V21.2393L61.9452 21.2292ZM44.5362 21.2292V0.557864H51.2063V15.7698H60.2372V21.2271L44.5362 21.2292ZM172.96 0.557864H179.725V21.2292H172.96V0.557864ZM149.405 21.2292V0.557864H155.723L161.526 10.1729C161.756 10.5378 161.941 10.9295 162.076 11.3392C162.278 11.8203 162.48 12.4388 162.729 13.126C162.659 12.7248 162.613 12.3199 162.591 11.9132C162.591 11.4665 162.557 10.9511 162.557 10.2962V0.557864H168.91V21.2292H162.557L156.754 11.7172C156.534 11.326 156.339 10.9209 156.172 10.5044C155.97 9.98901 155.767 9.40689 155.519 8.71966C155.588 9.09764 155.656 9.47561 155.691 9.88795C155.691 10.2639 155.725 10.8137 155.725 11.5353V21.2191L149.405 21.2292ZM112.972 5.87981C112.594 5.84545 112.181 5.81109 111.735 5.81109H109.881V15.9759H111.668C112.104 15.9905 112.54 15.9669 112.972 15.9052C113.934 15.7698 114.655 15.4262 115.1 14.9107C115.753 14.1548 116.062 12.8511 116.062 10.9289C116.062 9.07338 115.753 7.73329 115.1 6.97937C114.621 6.39321 113.899 6.05162 112.972 5.87981ZM112.972 21.1604C112.147 21.1948 111.187 21.2292 110.019 21.2292H103.219V0.557864H111.256C111.872 0.557864 112.456 0.557864 112.972 0.592226C113.926 0.598112 114.879 0.678532 115.822 0.832754C116.735 0.983096 117.617 1.28433 118.431 1.72412C119.853 2.55101 120.983 3.79898 121.665 5.29567C122.387 6.80756 122.765 8.69541 122.765 10.9289C122.765 13.2634 122.318 15.2544 121.424 16.7905C120.531 18.4075 119.201 19.5738 117.443 20.3621C116.644 20.7014 115.799 20.9214 114.936 21.0149C114.419 21.0836 113.768 21.118 112.978 21.1524L112.972 21.1604ZM135.642 16.5843C137.057 16.5843 138.045 16.1033 138.696 15.2463C139.349 14.3185 139.658 12.8774 139.658 10.9208C139.658 8.92785 139.349 7.48468 138.696 6.59331C138.045 5.66556 137.049 5.21886 135.642 5.21886C134.235 5.21886 133.237 5.66556 132.584 6.59331C131.899 7.52106 131.589 8.96221 131.589 10.9208C131.589 12.8794 131.899 14.3185 132.584 15.2463C133.237 16.1033 134.233 16.5843 135.642 16.5843ZM135.642 21.7709C132.311 21.7709 129.701 20.8087 127.812 18.8502C125.889 16.8936 124.927 14.2842 124.927 10.9208C124.927 7.55745 125.889 4.87525 127.812 2.91868C129.701 0.996475 132.311 0.0343612 135.642 0C138.971 0 141.582 0.996475 143.505 2.91868C145.427 4.87525 146.389 7.5534 146.389 10.9208C146.389 14.2882 145.427 16.8936 143.505 18.8502C141.582 20.8067 138.971 21.7709 135.642 21.7709Z" fill="white"/>
</svg>
