<svg width="332" height="63" viewBox="0 0 332 63" fill="none" xmlns="http://www.w3.org/2000/svg">
    <path d="M43.725 47.5258H46.8857V59.3173H53.207V61.8775H43.725V47.5258Z" fill="#231F20"/>
    <path d="M55.1008 47.5258H64.8732V50.1652H58.2747V53.2467H63.0652V55.7508H58.2615V59.3173H65.2229V61.8775H55.1008V47.5258Z" fill="#231F20"/>
    <path d="M66.6945 54.6421C66.6945 50.1453 69.1986 47.2551 73.2303 47.2551C75.9456 47.2551 78.1165 48.3406 79.0304 51.851L76.1402 52.6461C75.5398 50.6666 74.6259 49.8747 73.2105 49.8747C72.0491 49.8747 69.8749 50.5511 69.8749 54.5861C69.8749 58.621 71.8149 59.6075 73.3491 59.6075C74.8832 59.6075 75.9884 58.6177 76.2953 57.0308H73.7945V54.6817H79.3009V61.8774H76.7605V59.8979H76.7176C76.4075 60.7524 75.1471 62.1479 72.9762 62.1479C68.6344 62.1479 66.6945 58.9675 66.6945 54.6421Z" fill="#231F20"/>
    <path d="M81.0626 47.5258H84.2431L85.7574 54.0781C86.0453 55.1119 86.2776 56.1603 86.4536 57.219H86.4932C86.668 56.0378 86.9023 55.1272 87.153 54.0979L88.5948 47.5258H91.5014L93.0554 54.1243C93.3327 55.1394 93.5584 56.1678 93.7317 57.2058H93.7713C93.966 55.9092 94.1409 55.3252 94.4114 54.1638L95.8664 47.5291H98.7763L95.0316 61.8808H92.3362L90.0663 51.894H90.03L87.605 61.8775H84.87L81.0626 47.5258Z" fill="#231F20"/>
    <path d="M100.667 47.5258H110.439V50.1652H103.841V53.2467H108.631V55.7508H103.827V59.3173H110.789V61.8775H100.667V47.5258Z" fill="#231F20"/>
    <path d="M116.879 47.4795H119.885L124.966 61.8873H121.766L120.697 58.687H115.81L114.705 61.8873H111.798L116.879 47.4795ZM119.961 56.3875L118.311 51.498H118.288L116.586 56.3875H119.961Z" fill="#231F20"/>
    <path d="M126.767 47.5258H132.145C135.675 47.5258 137.787 48.7861 137.787 51.9666C137.787 54.2364 136.721 55.4769 134.801 56.0609L138.001 61.8775H134.679L131.693 56.4667H129.868V61.8775H126.767V47.5258ZM132.023 54.022C133.844 54.022 134.718 53.5007 134.718 52.0424C134.718 50.5842 133.844 50.1025 132.023 50.1025H129.868V54.0187L132.023 54.022Z" fill="#231F20"/>
    <path d="M144.487 58.3274C144.487 56.0179 146.041 54.8764 147.787 54.0384C147.233 53.0735 146.919 51.9894 146.873 50.8777C146.873 48.9971 148.133 47.2485 150.947 47.2485C153.564 47.2485 154.669 48.7794 154.669 50.3894C154.669 52.5438 153.098 53.6293 151.37 54.5003C151.624 54.8698 151.934 55.2393 152.244 55.6253C152.73 56.2462 153.254 56.8357 153.814 57.3904C154.315 56.4946 154.625 55.5051 154.725 54.4838H157.381C157.193 56.0389 156.689 57.539 155.899 58.8916C156.709 59.3295 157.618 59.55 158.539 59.5316V62.0721C156.678 62.0523 155.263 61.7026 153.963 60.9668C152.767 61.7729 151.35 62.1858 149.908 62.148C146.332 62.148 144.487 60.6567 144.487 58.3274ZM151.878 59.4129C151.179 58.7175 150.524 57.9793 149.918 57.2024C149.568 56.757 149.222 56.2918 148.928 55.8662C148.133 56.3875 147.651 57.0473 147.651 57.882C147.651 59.2215 148.565 59.977 149.921 59.977C150.614 59.9808 151.293 59.785 151.878 59.4129ZM152.072 50.5049C152.072 49.9209 151.798 49.2809 151.003 49.2809C150.307 49.2809 149.743 49.7461 149.743 50.6963C149.766 51.455 149.979 52.1958 150.363 52.8507C151.353 52.2964 152.072 51.6002 152.072 50.5148V50.5049Z" fill="#231F20"/>
    <path d="M165.276 47.5258H171.017C173.656 47.5258 176.134 48.1658 176.134 51.0757C176.134 53.1114 174.854 54.0814 173.399 54.375V54.408C175.144 54.7181 176.523 55.6287 176.523 57.9184C176.523 60.8085 173.983 61.8775 171.307 61.8775H165.276V47.5258ZM170.706 53.4413C172.356 53.4413 173.108 52.8211 173.108 51.7158C173.108 50.6106 172.448 49.9705 170.743 49.9705H168.377V53.4413H170.706ZM170.918 59.4723C172.663 59.4723 173.438 58.7729 173.438 57.5522C173.438 56.3315 172.528 55.6716 170.799 55.6716H168.394V59.4723H170.918Z" fill="#231F20"/>
    <path d="M179.1 47.5258H188.892V50.1652H182.261V53.2467H187.051V55.7508H182.261V59.3173H189.222V61.8775H179.1V47.5258Z" fill="#231F20"/>
    <path d="M195.312 47.4795H198.318L203.409 61.8774H200.208L199.14 58.6771H194.243L193.138 61.8774H190.232L195.312 47.4795ZM198.394 56.3875L196.744 51.498H196.708L195.019 56.3875H198.394Z" fill="#231F20"/>
    <path d="M204.521 54.6817C204.521 49.6999 207.411 47.2551 211.037 47.2551C214.663 47.2551 216.233 49.1951 216.853 51.7751L213.884 52.6461C213.419 50.9965 212.719 49.8747 211.033 49.8747C208.862 49.8747 207.698 51.7157 207.698 54.6817C207.698 57.7072 208.899 59.6075 211.073 59.6075C212.759 59.6075 213.594 58.5419 214.098 56.5821L217.068 57.242C216.368 60.1321 214.663 62.1479 211.056 62.1479C207.292 62.1479 204.521 59.7428 204.521 54.6817Z" fill="#231F20"/>
    <path d="M219.334 47.5258H222.495V53.0883H228.153V47.5258H231.314V61.8775H228.153V55.7508H222.495V61.8775H219.334V47.5258Z" fill="#231F20"/>
    <path d="M233.178 47.5258H236.358L237.873 54.0781C238.161 55.1119 238.393 56.1603 238.569 57.219H238.608C238.775 56.168 238.995 55.1263 239.268 54.0979L240.723 47.5423H243.63L245.184 54.1408C245.456 55.1561 245.676 56.1846 245.844 57.2223H245.883C246.078 55.9256 246.253 55.3417 246.523 54.1803L247.978 47.5456H250.918L247.173 61.8973H244.478L242.208 51.9105H242.172L239.747 61.8973H237.012L233.178 47.5258Z" fill="#231F20"/>
    <path d="M252.782 47.5258H262.558V50.1652H255.959V53.2467H260.75V55.7508H255.943V59.3173H262.904V61.8775H252.782V47.5258Z" fill="#231F20"/>
    <path d="M268.995 47.4795H272L277.081 61.8873H273.881L272.812 58.687H267.926L266.82 61.8873H263.914L268.995 47.4795ZM272.076 56.3875L270.426 51.498H270.384L268.701 56.3875H272.076Z" fill="#231F20"/>
    <path d="M278.882 47.5258H284.273C287.803 47.5258 289.915 48.7861 289.915 51.9666C289.915 54.2364 288.849 55.4769 286.929 56.0609L290.129 61.8775H286.794L283.825 56.4667H282V61.8775H278.899L278.882 47.5258ZM284.138 54.022C285.959 54.022 286.834 53.5007 286.834 52.0424C286.834 50.5842 285.959 50.1025 284.138 50.1025H281.984V54.0187L284.138 54.022Z" fill="#231F20"/>
    <path d="M52.181 0.910593H57.7303L69.6076 34.652H58.852L57.562 30.1683H46.7999L45.5132 34.652H34.8599L46.7372 0.910593H52.181ZM52.181 23.1607H55.6023L52.237 11.4484L48.819 23.1607H52.181ZM313.986 11.4484L310.568 23.1607H317.352L313.986 11.4484ZM313.986 30.1683H308.609L307.263 34.652H296.613L308.49 0.910593H319.476L331.354 34.652H320.592L319.361 30.1683H313.986ZM23.3719 21.5903H33.6293C33.3488 26.0179 31.7784 29.4392 28.9212 31.9071C26.1169 34.3716 22.2501 35.5362 17.4299 35.5362C11.9928 35.5362 7.78953 33.9658 4.65194 30.8249C1.57044 27.6312 0 23.3158 0 17.8259C0 12.3359 1.51436 7.97099 4.59586 4.77731C7.67736 1.63973 11.8806 0.0131973 17.2056 0.0131973C22.0819 0.0131973 25.9519 1.24712 28.753 3.59948C31.554 5.95185 33.1245 9.31708 33.461 13.6886H23.0354C22.9232 11.9532 22.3755 10.6599 21.4088 9.76578C20.4026 8.92447 19.0565 8.47577 17.3178 8.47577C15.1898 8.47577 13.6193 9.261 12.5536 10.7852C11.488 12.3524 10.9271 14.7081 10.9271 17.8489C10.9271 20.9304 11.488 23.2267 12.6658 24.7972C13.7876 26.3082 15.4141 27.1495 17.6147 27.1495C19.0786 27.1946 20.5067 26.6923 21.62 25.7408C22.5735 24.7312 23.1904 23.3851 23.3587 21.5903H23.3719ZM135.807 34.652V0.910593H162.765V8.98056H146.681V13.5203H160.245V21.2571H146.681V26.4138H163.442V34.6619L135.807 34.652ZM101.112 34.652V26.5227L116.751 9.65361H101.617V0.910593H130.089V8.98056L114.283 26.0344H130.931V34.6685L101.112 34.652ZM72.6957 34.652V0.910593H83.5832V25.7408H98.3243V34.6487L72.6957 34.652ZM282.32 0.910593H293.363V34.652H282.32V0.910593ZM243.871 34.652V0.910593H254.184L263.656 16.6051C264.032 17.2007 264.333 17.84 264.554 18.5088C264.884 19.294 265.214 20.3036 265.619 21.4253C265.505 20.7705 265.43 20.1095 265.395 19.4458C265.395 18.7166 265.339 17.8753 265.339 16.8064V0.910593H275.708V34.652H265.339L255.867 19.1258C255.507 18.4873 255.19 17.826 254.917 17.1462C254.587 16.3049 254.257 15.3547 253.851 14.233C253.963 14.8499 254.075 15.4669 254.131 16.1399C254.131 16.7536 254.187 17.651 254.187 18.8288V34.6355L243.871 34.652ZM184.402 9.59752C183.785 9.54143 183.112 9.48534 182.383 9.48534H179.357V26.0773H182.274C182.985 26.1011 183.697 26.0624 184.402 25.9618C185.972 25.7408 187.15 25.1799 187.876 24.3386C188.941 23.1047 189.446 20.9766 189.446 17.839C189.446 14.8103 188.941 12.6229 187.876 11.3923C187.094 10.4355 185.916 9.87796 184.402 9.59752ZM184.402 34.5399C183.056 34.5959 181.488 34.652 179.582 34.652H168.483V0.910593H181.601C182.607 0.910593 183.56 0.910593 184.402 0.966681C185.96 0.976289 187.516 1.10756 189.054 1.35929C190.544 1.60469 191.984 2.0964 193.313 2.81426C195.634 4.16397 197.478 6.20101 198.592 8.64404C199.77 11.1119 200.387 14.1934 200.387 17.839C200.387 21.6497 199.657 24.8994 198.199 27.4069C196.741 30.0463 194.57 31.9499 191.7 33.2367C190.396 33.7906 189.017 34.1497 187.609 34.3023C186.764 34.4145 185.702 34.4706 184.412 34.5267L184.402 34.5399ZM221.406 27.0704C223.716 27.0704 225.329 26.2851 226.391 24.8862C227.457 23.3719 227.962 21.0195 227.962 17.8259C227.962 14.5728 227.457 12.2171 226.391 10.7622C225.329 9.2478 223.702 8.51867 221.406 8.51867C219.11 8.51867 217.48 9.2478 216.414 10.7622C215.296 12.2765 214.791 14.6289 214.791 17.8259C214.791 21.0228 215.296 23.3719 216.414 24.8862C217.48 26.2851 219.107 27.0704 221.406 27.0704ZM221.406 35.5362C215.969 35.5362 211.71 33.9658 208.625 30.7688C205.487 27.5751 203.917 23.3158 203.917 17.8259C203.917 12.3359 205.487 7.95779 208.625 4.76412C211.71 1.62653 215.969 0.0560873 221.406 0C226.84 0 231.103 1.62653 234.24 4.76412C237.378 7.95779 238.948 12.3293 238.948 17.8259C238.948 23.3224 237.378 27.5751 234.24 30.7688C231.103 33.9625 226.84 35.5362 221.406 35.5362Z" fill="#231F20"/>
</svg>
