<svg xmlns="http://www.w3.org/2000/svg" display="none">
    <symbol id="phone" viewBox="0 0 12 12">
        <path d="M2.2999 7.42752C2.70293 7.34083 3.02175 7.52794 3.30406 7.69136C3.59317 7.85976 4.14291 8.30572 4.45802 8.19158C6.07135 7.52732 7.58872 6.11522 8.24557 4.49542C8.36134 4.17359 7.91745 3.62035 7.7503 3.32782C7.5881 3.04466 7.40485 2.72282 7.48843 2.31678C7.56396 1.9519 8.54087 0.708832 8.88632 0.368906C9.11414 0.144368 9.34753 0.0208714 9.58712 0.000912391C10.4879 -0.0377581 11.4939 1.16415 11.6703 1.45168C12.1124 2.0648 12.1099 2.88062 11.6629 3.86984C10.5857 6.52687 6.51152 10.5368 3.84451 11.6545C3.35234 11.8846 2.90227 12 2.49801 12C2.10242 12 1.75016 11.8896 1.44743 11.6707C1.21899 11.5391 -0.0321779 10.4831 0.00063324 9.55814C0.0204439 9.32238 0.143641 9.08661 0.365273 8.85833C0.702672 8.50967 1.93774 7.50362 2.2999 7.42752Z"/>
    </symbol>

    <symbol id="vk" viewBox="0 0 31 31" xmlns="http://www.w3.org/2000/svg">
        <path d="M0 0V31H31V0H0ZM24.8515 17.2011C25.5994 17.9727 26.4001 18.6945 27.1244 19.487C27.6508 20.0637 28.138 20.6893 28.5551 21.3478C29.0826 22.1807 28.7568 22.9652 27.7712 23.105C27.1511 23.1924 24.1224 23.1056 23.9659 23.105C23.1516 23.1013 22.4378 22.8188 21.863 22.2658C21.2237 21.6501 20.6427 20.9748 20.0289 20.3324C19.844 20.1388 19.6466 19.9532 19.4337 19.7912C18.9316 19.4082 18.4387 19.4932 18.2041 20.0829C18.0037 20.5894 17.8305 21.9195 17.8224 22.0331C17.7802 22.627 17.4022 23.0056 16.7368 23.0422C14.8159 23.1465 12.9544 22.9324 11.2203 22.0033C9.75056 21.2162 8.5769 20.1034 7.56023 18.8056C5.94524 16.7442 4.66961 14.4783 3.505 12.1459C3.44548 12.0267 2.2659 9.51663 2.2342 9.39807C2.12883 9.00109 2.22713 8.62186 2.56255 8.49133C2.77165 8.4099 6.66077 8.49106 6.72546 8.49452C7.34603 8.52806 7.76927 8.78988 8.03061 9.43405C8.77355 11.2688 9.71512 12.9986 10.9552 14.5515C11.1197 14.7582 11.3271 14.9418 11.5455 15.0914C11.8645 15.3105 12.1655 15.2335 12.2952 14.8686C12.4324 14.4856 12.5583 13.7095 12.5658 13.3073C12.5863 12.2565 12.5628 11.5679 12.5063 10.5183C12.4697 9.84613 12.2307 9.2559 11.242 9.07775C10.9366 9.02252 10.9082 8.77117 11.1044 8.52044C11.5128 7.99844 12.0818 7.91524 12.6987 7.88232C13.6987 7.82831 14.7023 7.87239 15.7034 7.88232C16.1112 7.88606 16.5215 7.91892 16.9231 8.00646C17.4469 8.12067 17.7274 8.48813 17.8138 8.99952C17.8584 9.26332 17.8814 9.53452 17.8752 9.80144C17.8491 10.9484 17.7939 12.0948 17.7808 13.2412C17.7753 13.6912 17.8081 14.1524 17.9044 14.5906C18.039 15.2013 18.4549 15.3546 18.8801 14.9133C19.42 14.3528 19.8961 13.7223 20.343 13.0818C21.1548 11.9167 21.7612 10.6382 22.2832 9.31991C22.5532 8.63968 22.7599 8.49194 23.4916 8.4901C24.867 8.48697 26.2424 8.48575 27.6179 8.4901C27.8618 8.49133 28.1169 8.51432 28.3471 8.58751C28.7208 8.70669 28.8691 9.01143 28.7816 9.39814C28.5774 10.3043 28.0877 11.0746 27.5632 11.815C26.7216 13.003 25.8396 14.1624 24.9782 15.3367C24.8683 15.4863 24.7715 15.6458 24.6815 15.8078C24.3594 16.3899 24.3817 16.7163 24.8515 17.2011Z"/>
    </symbol>

    <symbol id="instagram" viewBox="0 0 31 31">
        <path d="M15.4997 12.4175C13.8005 12.4175 12.4169 13.8005 12.4169 15.4997C12.4169 17.1995 13.8005 18.5831 15.4997 18.5831C17.1995 18.5831 18.5824 17.1995 18.5824 15.4997C18.5824 13.8005 17.1995 12.4175 15.4997 12.4175ZM15.4997 12.4175C13.8005 12.4175 12.4169 13.8005 12.4169 15.4997C12.4169 17.1995 13.8005 18.5831 15.4997 18.5831C17.1995 18.5831 18.5824 17.1995 18.5824 15.4997C18.5824 13.8005 17.1995 12.4175 15.4997 12.4175ZM20.6354 7.39135H10.3646C8.72528 7.39135 7.39135 8.72528 7.39135 10.3646V20.6354C7.39135 22.2747 8.72528 23.6086 10.3646 23.6086H20.6354C22.2747 23.6086 23.6086 22.2747 23.6086 20.6354V10.3646C23.6086 8.72528 22.2747 7.39135 20.6354 7.39135ZM15.4997 20.8388C12.5563 20.8388 10.1612 18.4437 10.1612 15.4997C10.1612 12.5563 12.5563 10.1612 15.4997 10.1612C18.4437 10.1612 20.8388 12.5563 20.8388 15.4997C20.8388 18.4437 18.4437 20.8388 15.4997 20.8388ZM21.0102 11.2652C20.3136 11.2652 19.747 10.6986 19.747 10.0021C19.747 9.30551 20.3136 8.73888 21.0102 8.73888C21.7067 8.73888 22.2734 9.30551 22.2734 10.0021C22.2734 10.6986 21.7067 11.2652 21.0102 11.2652ZM15.4997 12.4175C13.8005 12.4175 12.4169 13.8005 12.4169 15.4997C12.4169 17.1995 13.8005 18.5831 15.4997 18.5831C17.1995 18.5831 18.5824 17.1995 18.5824 15.4997C18.5824 13.8005 17.1995 12.4175 15.4997 12.4175ZM20.6354 7.39135H10.3646C8.72528 7.39135 7.39135 8.72528 7.39135 10.3646V20.6354C7.39135 22.2747 8.72528 23.6086 10.3646 23.6086H20.6354C22.2747 23.6086 23.6086 22.2747 23.6086 20.6354V10.3646C23.6086 8.72528 22.2747 7.39135 20.6354 7.39135ZM15.4997 20.8388C12.5563 20.8388 10.1612 18.4437 10.1612 15.4997C10.1612 12.5563 12.5563 10.1612 15.4997 10.1612C18.4437 10.1612 20.8388 12.5563 20.8388 15.4997C20.8388 18.4437 18.4437 20.8388 15.4997 20.8388ZM21.0102 11.2652C20.3136 11.2652 19.747 10.6986 19.747 10.0021C19.747 9.30551 20.3136 8.73888 21.0102 8.73888C21.7067 8.73888 22.2734 9.30551 22.2734 10.0021C22.2734 10.6986 21.7067 11.2652 21.0102 11.2652ZM15.4997 12.4175C13.8005 12.4175 12.4169 13.8005 12.4169 15.4997C12.4169 17.1995 13.8005 18.5831 15.4997 18.5831C17.1995 18.5831 18.5824 17.1995 18.5824 15.4997C18.5824 13.8005 17.1995 12.4175 15.4997 12.4175ZM0 0V31H31V0H0ZM25.8643 20.6354C25.8643 23.5189 23.5189 25.8643 20.6354 25.8643H10.3646C7.48114 25.8643 5.13572 23.5189 5.13572 20.6354V10.3646C5.13572 7.48114 7.48114 5.13572 10.3646 5.13572H20.6354C23.5189 5.13572 25.8643 7.48114 25.8643 10.3646V20.6354ZM20.6354 7.39135H10.3646C8.72528 7.39135 7.39135 8.72528 7.39135 10.3646V20.6354C7.39135 22.2747 8.72528 23.6086 10.3646 23.6086H20.6354C22.2747 23.6086 23.6086 22.2747 23.6086 20.6354V10.3646C23.6086 8.72528 22.2747 7.39135 20.6354 7.39135ZM15.4997 20.8388C12.5563 20.8388 10.1612 18.4437 10.1612 15.4997C10.1612 12.5563 12.5563 10.1612 15.4997 10.1612C18.4437 10.1612 20.8388 12.5563 20.8388 15.4997C20.8388 18.4437 18.4437 20.8388 15.4997 20.8388ZM21.0102 11.2652C20.3136 11.2652 19.747 10.6986 19.747 10.0021C19.747 9.30551 20.3136 8.73888 21.0102 8.73888C21.7067 8.73888 22.2734 9.30551 22.2734 10.0021C22.2734 10.6986 21.7067 11.2652 21.0102 11.2652ZM15.4997 12.4175C13.8005 12.4175 12.4169 13.8005 12.4169 15.4997C12.4169 17.1995 13.8005 18.5831 15.4997 18.5831C17.1995 18.5831 18.5824 17.1995 18.5824 15.4997C18.5824 13.8005 17.1995 12.4175 15.4997 12.4175ZM15.4997 12.4175C13.8005 12.4175 12.4169 13.8005 12.4169 15.4997C12.4169 17.1995 13.8005 18.5831 15.4997 18.5831C17.1995 18.5831 18.5824 17.1995 18.5824 15.4997C18.5824 13.8005 17.1995 12.4175 15.4997 12.4175ZM15.4997 12.4175C13.8005 12.4175 12.4169 13.8005 12.4169 15.4997C12.4169 17.1995 13.8005 18.5831 15.4997 18.5831C17.1995 18.5831 18.5824 17.1995 18.5824 15.4997C18.5824 13.8005 17.1995 12.4175 15.4997 12.4175ZM20.6354 7.39135H10.3646C8.72528 7.39135 7.39135 8.72528 7.39135 10.3646V20.6354C7.39135 22.2747 8.72528 23.6086 10.3646 23.6086H20.6354C22.2747 23.6086 23.6086 22.2747 23.6086 20.6354V10.3646C23.6086 8.72528 22.2747 7.39135 20.6354 7.39135ZM15.4997 20.8388C12.5563 20.8388 10.1612 18.4437 10.1612 15.4997C10.1612 12.5563 12.5563 10.1612 15.4997 10.1612C18.4437 10.1612 20.8388 12.5563 20.8388 15.4997C20.8388 18.4437 18.4437 20.8388 15.4997 20.8388ZM21.0102 11.2652C20.3136 11.2652 19.747 10.6986 19.747 10.0021C19.747 9.30551 20.3136 8.73888 21.0102 8.73888C21.7067 8.73888 22.2734 9.30551 22.2734 10.0021C22.2734 10.6986 21.7067 11.2652 21.0102 11.2652ZM15.4997 12.4175C13.8005 12.4175 12.4169 13.8005 12.4169 15.4997C12.4169 17.1995 13.8005 18.5831 15.4997 18.5831C17.1995 18.5831 18.5824 17.1995 18.5824 15.4997C18.5824 13.8005 17.1995 12.4175 15.4997 12.4175ZM15.4997 12.4175C13.8005 12.4175 12.4169 13.8005 12.4169 15.4997C12.4169 17.1995 13.8005 18.5831 15.4997 18.5831C17.1995 18.5831 18.5824 17.1995 18.5824 15.4997C18.5824 13.8005 17.1995 12.4175 15.4997 12.4175ZM15.4997 12.4175C13.8005 12.4175 12.4169 13.8005 12.4169 15.4997C12.4169 17.1995 13.8005 18.5831 15.4997 18.5831C17.1995 18.5831 18.5824 17.1995 18.5824 15.4997C18.5824 13.8005 17.1995 12.4175 15.4997 12.4175ZM20.6354 7.39135H10.3646C8.72528 7.39135 7.39135 8.72528 7.39135 10.3646V20.6354C7.39135 22.2747 8.72528 23.6086 10.3646 23.6086H20.6354C22.2747 23.6086 23.6086 22.2747 23.6086 20.6354V10.3646C23.6086 8.72528 22.2747 7.39135 20.6354 7.39135ZM15.4997 20.8388C12.5563 20.8388 10.1612 18.4437 10.1612 15.4997C10.1612 12.5563 12.5563 10.1612 15.4997 10.1612C18.4437 10.1612 20.8388 12.5563 20.8388 15.4997C20.8388 18.4437 18.4437 20.8388 15.4997 20.8388ZM21.0102 11.2652C20.3136 11.2652 19.747 10.6986 19.747 10.0021C19.747 9.30551 20.3136 8.73888 21.0102 8.73888C21.7067 8.73888 22.2734 9.30551 22.2734 10.0021C22.2734 10.6986 21.7067 11.2652 21.0102 11.2652ZM15.4997 12.4175C13.8005 12.4175 12.4169 13.8005 12.4169 15.4997C12.4169 17.1995 13.8005 18.5831 15.4997 18.5831C17.1995 18.5831 18.5824 17.1995 18.5824 15.4997C18.5824 13.8005 17.1995 12.4175 15.4997 12.4175Z"/>
    </symbol>

    <symbol id="fb" viewBox="0 0 31 31">
        <path d="M0 0V31H16.5094V19.0253H12.4736V14.137H16.5094V10.0316C16.5094 7.04586 18.9298 4.62548 21.9155 4.62548H26.1346V9.02124H23.1156C22.1669 9.02124 21.3978 9.79037 21.3978 10.7391V14.137H26.0588L25.4146 19.0254H21.3978V31H31V0H0Z"/>
    </symbol>

    <symbol id="location" viewBox="0 0 18 22">
        <path fill-rule="evenodd" clip-rule="evenodd"
              d="M0 8.80704C0 3.93659 4.06999 0 8.99306 0C13.93 0 18 3.93659 18 8.80704C18 11.2613 17.1074 13.5398 15.6383 15.4711C14.0176 17.6014 12.0199 19.4574 9.7714 20.9143C9.25678 21.251 8.79234 21.2764 8.22754 20.9143C5.96619 19.4574 3.96856 17.6014 2.36171 15.4711C0.891512 13.5398 0 11.2613 0 8.80704ZM6.02918 9.08126C6.02918 10.7129 7.36058 11.9961 8.99306 11.9961C10.6266 11.9961 11.9708 10.7129 11.9708 9.08126C11.9708 7.46236 10.6266 6.11664 8.99306 6.11664C7.36058 6.11664 6.02918 7.46236 6.02918 9.08126Z"/>
    </symbol>

    <symbol id="message" viewBox="0 0 19 16">
        <path d="M0 0H19V12H14.5V16L4.5 12H0V0Z"/>
    </symbol>

    <symbol id="pencil" viewBox="0 0 10 11">
        <path d="M9.6523 3.48391L4.05908 10.4712C3.80238 10.7885 3.4241 10.9669 3.01879 10.9736L0.789609 11C0.668017 11 0.56669 10.9207 0.53967 10.8083L0.0330374 8.68634C-0.0547789 8.29632 0.0330374 7.89309 0.289731 7.5824L4.25497 2.62455C4.32253 2.54523 4.44412 2.53267 4.52518 2.5915L6.19369 3.87393C6.30177 3.95987 6.45038 4.00614 6.60575 3.98631C6.93675 3.94665 7.15967 3.65578 7.12589 3.34509C7.10563 3.18644 7.02457 3.05423 6.91648 2.95508C6.88271 2.92863 5.29526 1.69909 5.29526 1.69909C5.19393 1.61977 5.17367 1.47434 5.25473 1.37584L5.88295 0.588534C6.46389 -0.132005 7.47716 -0.19811 8.29452 0.429883L9.23348 1.15042C9.61852 1.44128 9.87522 1.82469 9.96303 2.22793C10.0644 2.67149 9.95628 3.10712 9.6523 3.48391Z"/>
    </symbol>

    <symbol id="arrow-bottom" viewBox="0 0 13 8">
        <path d="M1 1L6.33334 6L11.6667 1" stroke-width="2" stroke-linecap="round"/>
    </symbol>


</svg>